<svg width="28" height="16" viewBox="0 0 28 16" fill="none" xmlns="http://www.w3.org/2000/svg">
<g clip-path="url(#clip0_2601_107)">
<path d="M2 5.75C2 5.05964 2.55964 4.5 3.25 4.5H4V13H3.25C2.55964 13 2 12.4404 2 11.75V5.75Z" fill="#353431"/>
<path d="M4 4.5H6V13H4V4.5Z" fill="#353431"/>
<path d="M6 4.5H8V13H6V4.5Z" fill="#353431"/>
<path d="M8 4.5H10V13H8V4.5Z" fill="#353431"/>
<path d="M10 4.5H12V13H10V4.5Z" fill="#353431"/>
<path d="M12 4.5H14V13H12V4.5Z" fill="#353431"/>
</g>
<g opacity="0.5">
<path fill-rule="evenodd" clip-rule="evenodd" d="M0 5.5C0 3.84315 1.34315 2.5 3 2.5H21C22.6569 2.5 24 3.84315 24 5.5V12C24 13.6569 22.6569 15 21 15H3C1.34315 15 0 13.6569 0 12V5.5ZM3 3.5C1.89543 3.5 1 4.39543 1 5.5V12C1 13.1046 1.89543 14 3 14H21C22.1046 14 23 13.1046 23 12V5.5C23 4.39543 22.1046 3.5 21 3.5H3Z" fill="#353431"/>
<path d="M25 11.042C25.883 10.6562 26.5 9.77515 26.5 8.74999C26.5 7.72483 25.883 6.84379 25 6.45801V11.042Z" fill="#353431"/>
</g>
<defs>
<clipPath id="clip0_2601_107">
<rect width="12" height="8.5" fill="white" transform="translate(2 4.5)"/>
</clipPath>
</defs>
</svg>
