<svg width="21" height="26" viewBox="0 0 21 26" fill="none" xmlns="http://www.w3.org/2000/svg">
<path d="M15.5986 25.291C15.5986 25.479 15.5239 25.6594 15.3909 25.7923C15.2579 25.9253 15.0776 26 14.8895 26H5.436C5.24796 26 5.06762 25.9253 4.93465 25.7923C4.80168 25.6594 4.72698 25.479 4.72698 25.291C4.72698 25.1029 4.80168 24.9226 4.93465 24.7896C5.06762 24.6567 5.24796 24.582 5.436 24.582H14.8895C15.0776 24.582 15.2579 24.6567 15.3909 24.7896C15.5239 24.9226 15.5986 25.1029 15.5986 25.291ZM20.3253 10.1653C20.3297 11.7052 19.9816 13.2257 19.3078 14.6103C18.6339 15.9949 17.6521 17.2069 16.4376 18.1536C16.1782 18.3554 15.968 18.6133 15.8227 18.908C15.6774 19.2028 15.6007 19.5266 15.5986 19.8552V20.5642C15.5986 21.003 15.4243 21.4238 15.114 21.734C14.8038 22.0443 14.383 22.2186 13.9442 22.2186H6.38135C5.94259 22.2186 5.52179 22.0443 5.21154 21.734C4.90128 21.4238 4.72698 21.003 4.72698 20.5642V19.8552C4.72616 19.5293 4.65127 19.2078 4.50797 18.915C4.36467 18.6223 4.15671 18.3659 3.8998 18.1654C2.68938 17.2248 1.70914 16.0209 1.03346 14.645C0.357778 13.269 0.00442219 11.7573 0.000210119 10.2244C-0.0352407 4.7177 4.41974 0.132732 9.91462 0.00274558C11.2695 -0.0287357 12.617 0.210783 13.8781 0.707238C15.1391 1.20369 16.2882 1.94708 17.258 2.89376C18.2278 3.84043 18.9987 4.97132 19.5254 6.22002C20.0522 7.46872 20.3241 8.81006 20.3253 10.1653ZM18.9073 10.1653C18.906 8.9993 18.6719 7.84529 18.2186 6.77099C17.7654 5.69668 17.1021 4.72373 16.2678 3.9092C15.4335 3.09468 14.4448 2.45499 13.36 2.02768C12.2751 1.60036 11.1158 1.39403 9.95007 1.42078C5.22329 1.53895 1.39461 5.47399 1.41824 10.2126C1.42244 11.5328 1.72675 12.8348 2.30816 14.0201C2.88956 15.2055 3.73284 16.2431 4.77425 17.0546C5.20175 17.3854 5.54764 17.81 5.78528 18.2955C6.02293 18.781 6.146 19.3146 6.14502 19.8552V20.5642C6.14502 20.6269 6.16992 20.687 6.21424 20.7313C6.25856 20.7757 6.31867 20.8006 6.38135 20.8006H9.45376V15.1875L5.88504 11.607C5.75341 11.4753 5.67946 11.2968 5.67946 11.1107C5.67946 10.9245 5.75341 10.746 5.88504 10.6144C6.01667 10.4827 6.1952 10.4088 6.38135 10.4088C6.56751 10.4088 6.74604 10.4827 6.87767 10.6144L10.1628 13.8876L13.4479 10.6144C13.5795 10.4827 13.758 10.4088 13.9442 10.4088C14.1303 10.4088 14.3089 10.4827 14.4405 10.6144C14.5721 10.746 14.6461 10.9245 14.6461 11.1107C14.6461 11.2968 14.5721 11.4753 14.4405 11.607L10.8718 15.1875V20.8006H13.9442C14.0069 20.8006 14.067 20.7757 14.1113 20.7313C14.1556 20.687 14.1805 20.6269 14.1805 20.5642V19.8552C14.1827 19.3123 14.3083 18.7769 14.5478 18.2897C14.7873 17.8024 15.1345 17.376 15.5631 17.0428C16.6077 16.227 17.4521 15.1833 18.0317 13.9913C18.6113 12.7994 18.9108 11.4907 18.9073 10.1653Z" fill="#353431"/>
</svg>
