<svg width="48" height="41" viewBox="0 0 48 41" fill="none" xmlns="http://www.w3.org/2000/svg">
<path opacity="0.2" d="M21.75 15.75C21.75 16.4917 21.5301 17.2167 21.118 17.8334C20.706 18.4501 20.1203 18.9307 19.4351 19.2145C18.7498 19.4984 17.9958 19.5726 17.2684 19.4279C16.541 19.2833 15.8728 18.9261 15.3484 18.4017C14.8239 17.8772 14.4668 17.209 14.3221 16.4816C14.1774 15.7542 14.2516 15.0002 14.5355 14.3149C14.8193 13.6297 15.2999 13.044 15.9166 12.632C16.5333 12.2199 17.2583 12 18 12C18.9946 12 19.9484 12.3951 20.6517 13.0983C21.3549 13.8016 21.75 14.7554 21.75 15.75ZM30 12C29.2583 12 28.5333 12.2199 27.9166 12.632C27.2999 13.044 26.8193 13.6297 26.5355 14.3149C26.2516 15.0002 26.1774 15.7542 26.3221 16.4816C26.4668 17.209 26.8239 17.8772 27.3484 18.4017C27.8728 18.9261 28.541 19.2833 29.2684 19.4279C29.9958 19.5726 30.7498 19.4984 31.4351 19.2145C32.1203 18.9307 32.706 18.4501 33.118 17.8334C33.5301 17.2167 33.75 16.4917 33.75 15.75C33.75 14.7554 33.3549 13.8016 32.6517 13.0983C31.9484 12.3951 30.9946 12 30 12Z" fill="#353431" fill-opacity="0.7"/>
<path d="M34.2375 14.2406C34.1722 14.0647 34.097 13.8925 34.0125 13.725L30.1219 4.85623C30.0829 4.77213 30.0289 4.69587 29.9625 4.63123C29.6838 4.35202 29.3529 4.1305 28.9885 3.97936C28.6241 3.82822 28.2335 3.75043 27.8391 3.75043C27.4446 3.75043 27.054 3.82822 26.6896 3.97936C26.3253 4.1305 25.9943 4.35202 25.7156 4.63123C25.6469 4.70026 25.5925 4.78217 25.5555 4.87225C25.5185 4.96234 25.4997 5.05884 25.5 5.15623V7.87498H22.5V5.15623C22.5003 5.05884 22.4815 4.96234 22.4445 4.87225C22.4075 4.78217 22.3531 4.70026 22.2844 4.63123C22.0057 4.35202 21.6747 4.1305 21.3104 3.97936C20.946 3.82822 20.5554 3.75043 20.1609 3.75043C19.7665 3.75043 19.3759 3.82822 19.0115 3.97936C18.6471 4.1305 18.3162 4.35202 18.0375 4.63123C17.9711 4.69587 17.9171 4.77213 17.8781 4.85623L13.9875 13.725C13.903 13.8925 13.8279 14.0647 13.7625 14.2406C13.5883 14.7247 13.4995 15.2354 13.5 15.75C13.5 16.9435 13.9741 18.088 14.818 18.932C15.6619 19.7759 16.8065 20.25 18 20.25C19.1935 20.25 20.3381 19.7759 21.182 18.932C22.0259 18.088 22.5 16.9435 22.5 15.75V9.37498H25.5V15.75C25.5 16.9435 25.9741 18.088 26.818 18.932C27.6619 19.7759 28.8065 20.25 30 20.25C31.1935 20.25 32.3381 19.7759 33.182 18.932C34.0259 18.088 34.5 16.9435 34.5 15.75C34.5005 15.2354 34.4117 14.7247 34.2375 14.2406ZM19.1906 5.60623C19.4404 5.39547 19.7518 5.27148 20.0781 5.25288C20.4044 5.23428 20.7279 5.32209 21 5.5031V12.4031C20.1789 11.6579 19.1088 11.2466 18 11.25C17.5291 11.2491 17.0609 11.3219 16.6125 11.4656L19.1906 5.60623ZM18 18.75C17.5184 18.7518 17.0434 18.6372 16.6155 18.4161C16.1877 18.1949 15.8196 17.8737 15.5425 17.4797C15.2654 17.0858 15.0876 16.6307 15.0242 16.1533C14.9607 15.6758 15.0136 15.1901 15.1781 14.7375L15.3469 14.3625C15.5931 13.8905 15.9604 13.4925 16.4113 13.2094C16.8621 12.9263 17.3801 12.7683 17.9122 12.7515C18.4442 12.7347 18.9712 12.8598 19.439 13.1139C19.9067 13.3681 20.2984 13.7421 20.5739 14.1976C20.8493 14.6532 20.9986 15.1738 21.0064 15.7061C21.0142 16.2383 20.8802 16.7631 20.6182 17.2265C20.3562 17.6899 19.9756 18.0752 19.5155 18.343C19.0554 18.6107 18.5323 18.7512 18 18.75ZM27 5.5031C27.2721 5.32209 27.5956 5.23428 27.9219 5.25288C28.2482 5.27148 28.5596 5.39547 28.8094 5.60623L31.3875 11.4656C30.9391 11.3219 30.4709 11.2491 30 11.25C28.8912 11.2466 27.8211 11.6579 27 12.4031V5.5031ZM30 18.75C29.4677 18.7512 28.9446 18.6107 28.4845 18.343C28.0244 18.0752 27.6438 17.6899 27.3818 17.2265C27.1198 16.7631 26.9858 16.2383 26.9936 15.7061C27.0014 15.1738 27.1507 14.6532 27.4261 14.1976C27.7016 13.7421 28.0933 13.3681 28.5611 13.1139C29.0288 12.8598 29.5558 12.7347 30.0878 12.7515C30.6199 12.7683 31.1379 12.9263 31.5887 13.2094C32.0396 13.4925 32.4069 13.8905 32.6531 14.3625L32.8219 14.7375C32.9865 15.1901 33.0393 15.6758 32.9758 16.1533C32.9124 16.6307 32.7346 17.0858 32.4575 17.4797C32.1804 17.8737 31.8123 18.1949 31.3845 18.4161C30.9566 18.6372 30.4816 18.7518 30 18.75Z" fill="#353431" fill-opacity="0.7"/>
<path d="M6.02395 34.412V33.032H2.75995V30.644H6.64795V29.228H1.22395V38H2.75995V34.412H6.02395ZM7.01152 35.024C7.01152 36.872 8.34352 38.144 10.1795 38.144C12.0155 38.144 13.3475 36.872 13.3475 35.024C13.3475 33.176 12.0155 31.904 10.1795 31.904C8.34352 31.904 7.01152 33.176 7.01152 35.024ZM8.47552 35.024C8.47552 33.944 9.17152 33.212 10.1795 33.212C11.1875 33.212 11.8835 33.944 11.8835 35.024C11.8835 36.104 11.1875 36.836 10.1795 36.836C9.17152 36.836 8.47552 36.104 8.47552 35.024ZM18.228 32.048C17.988 31.988 17.784 31.964 17.58 31.964C16.788 31.964 16.224 32.36 15.972 32.948L15.888 32.084H14.508V38H15.972V35.12C15.972 33.968 16.632 33.404 17.688 33.404H18.228V32.048ZM21.6717 38.156C23.2197 38.156 24.2997 37.376 24.5517 36.08H23.1957C23.0277 36.644 22.4997 36.956 21.6957 36.956C20.7237 36.956 20.1717 36.428 20.0637 35.384L24.5277 35.372V34.928C24.5277 33.08 23.3997 31.892 21.6237 31.892C19.8837 31.892 18.6717 33.176 18.6717 35.036C18.6717 36.872 19.9077 38.156 21.6717 38.156ZM21.6357 33.092C22.5117 33.092 23.0757 33.632 23.0757 34.448H20.0997C20.2437 33.56 20.7717 33.092 21.6357 33.092ZM25.3514 35.024C25.3514 36.908 26.5274 38.156 28.3274 38.156C29.8754 38.156 31.0274 37.208 31.2074 35.828H29.7314C29.5754 36.476 29.0594 36.836 28.3274 36.836C27.3914 36.836 26.8154 36.14 26.8154 35.024C26.8154 33.908 27.4394 33.2 28.3754 33.2C29.0714 33.2 29.5634 33.548 29.7314 34.22H31.1954C31.0394 32.792 29.9354 31.892 28.3154 31.892C26.5634 31.892 25.3514 33.188 25.3514 35.024ZM34.061 38.156C34.985 38.156 35.789 37.736 36.041 37.124L36.149 38H37.433V34.4C37.433 32.756 36.449 31.892 34.853 31.892C33.245 31.892 32.189 32.732 32.189 34.016H33.437C33.437 33.392 33.917 33.032 34.781 33.032C35.525 33.032 36.005 33.356 36.005 34.16V34.292L34.229 34.424C32.825 34.532 32.033 35.216 32.033 36.308C32.033 37.424 32.801 38.156 34.061 38.156ZM34.541 37.052C33.881 37.052 33.521 36.788 33.521 36.248C33.521 35.768 33.869 35.468 34.781 35.384L36.017 35.288V35.6C36.017 36.512 35.441 37.052 34.541 37.052ZM38.4152 36.2C38.4152 37.364 39.3512 38.156 40.8272 38.156C42.2912 38.156 43.3112 37.412 43.3112 36.212C43.3112 35.3 42.8072 34.844 41.8112 34.616L40.7432 34.364C40.2392 34.244 39.9752 34.028 39.9752 33.692C39.9752 33.248 40.3112 32.984 40.8872 32.984C41.4512 32.984 41.7872 33.308 41.7992 33.812H43.1912C43.1792 32.66 42.2792 31.892 40.9472 31.892C39.5792 31.892 38.5952 32.588 38.5952 33.752C38.5952 34.7 39.1112 35.204 40.1792 35.444L41.2472 35.696C41.7752 35.816 41.9312 36.032 41.9312 36.332C41.9312 36.764 41.5592 37.04 40.8752 37.04C40.2032 37.04 39.8192 36.716 39.8072 36.2H38.4152ZM46.4419 38V33.296H47.5939V32.072H46.4419V30.224H44.9779V32.072H43.8379V33.296H44.9779V38H46.4419Z" fill="#353431" fill-opacity="0.7"/>
</svg>
