<svg width="34" height="41" viewBox="0 0 34 41" fill="none" xmlns="http://www.w3.org/2000/svg">
<path d="M26 10.8281V19.5C25.9994 19.7707 25.9259 20.0363 25.7874 20.2688C25.6488 20.5014 25.4503 20.6924 25.2125 20.8219C24.9945 20.9421 24.749 21.0035 24.5 21H20C19.8011 21 19.6103 20.921 19.4697 20.7804C19.329 20.6397 19.25 20.4489 19.25 20.25V15.75C19.25 15.5511 19.171 15.3603 19.0303 15.2197C18.8897 15.079 18.6989 15 18.5 15H15.5C15.3011 15 15.1103 15.079 14.9697 15.2197C14.829 15.3603 14.75 15.5511 14.75 15.75V20.25C14.75 20.4489 14.671 20.6397 14.5303 20.7804C14.3897 20.921 14.1989 21 14 21H9.50002C9.28723 21.0008 9.07674 20.9561 8.88269 20.8687C8.68864 20.7814 8.51554 20.6536 8.37502 20.4938C8.13117 20.2057 7.99819 19.84 8.00002 19.4625V10.8281C8.00008 10.62 8.04346 10.4142 8.12739 10.2237C8.21132 10.0333 8.33396 9.86238 8.48752 9.7219L15.9875 2.90627C16.264 2.6533 16.6252 2.513 17 2.513C17.3748 2.513 17.736 2.6533 18.0125 2.90627L25.5125 9.7219C25.6661 9.86238 25.7887 10.0333 25.8726 10.2237C25.9566 10.4142 26 10.62 26 10.8281Z" fill="#353431"/>
<path d="M2.83222 38V34.28H6.72022V38H8.25622V29.228H6.72022V32.852H2.83222V29.228H1.29622V38H2.83222ZM9.63847 35.024C9.63847 36.872 10.9705 38.144 12.8065 38.144C14.6425 38.144 15.9745 36.872 15.9745 35.024C15.9745 33.176 14.6425 31.904 12.8065 31.904C10.9705 31.904 9.63847 33.176 9.63847 35.024ZM11.1025 35.024C11.1025 33.944 11.7985 33.212 12.8065 33.212C13.8145 33.212 14.5105 33.944 14.5105 35.024C14.5105 36.104 13.8145 36.836 12.8065 36.836C11.7985 36.836 11.1025 36.104 11.1025 35.024ZM18.5989 38V34.64C18.5989 33.68 19.1629 33.224 19.8589 33.224C20.5549 33.224 20.9989 33.668 20.9989 34.496V38H22.4629V34.64C22.4629 33.668 23.0029 33.212 23.7109 33.212C24.4069 33.212 24.8629 33.656 24.8629 34.508V38H26.3149V34.124C26.3149 32.756 25.5229 31.892 24.0829 31.892C23.1829 31.892 22.4869 32.336 22.1869 33.02C21.8749 32.336 21.2509 31.892 20.3509 31.892C19.4989 31.892 18.8989 32.276 18.5989 32.768L18.4789 32.072H17.1349V38H18.5989ZM30.4041 38.156C31.9521 38.156 33.0321 37.376 33.2841 36.08H31.9281C31.7601 36.644 31.2321 36.956 30.4281 36.956C29.4561 36.956 28.9041 36.428 28.7961 35.384L33.2601 35.372V34.928C33.2601 33.08 32.1321 31.892 30.3561 31.892C28.6161 31.892 27.4041 33.176 27.4041 35.036C27.4041 36.872 28.6401 38.156 30.4041 38.156ZM30.3681 33.092C31.2441 33.092 31.8081 33.632 31.8081 34.448H28.8321C28.9761 33.56 29.5041 33.092 30.3681 33.092Z" fill="#353431"/>
</svg>
