<svg width="13" height="12" viewBox="0 0 13 12" fill="none" xmlns="http://www.w3.org/2000/svg">
<path d="M2.24121 6.71289L6.01709 6.72363C6.10303 6.72363 6.13525 6.75586 6.13525 6.8418L6.146 10.6177C6.146 11.3213 6.35547 11.9014 6.9624 11.9014C7.47266 11.9014 7.7627 11.4341 8.00977 10.9023L12.0488 2.12598C12.1724 1.86279 12.2422 1.62109 12.2422 1.41162C12.2422 0.960449 11.8931 0.616699 11.4473 0.616699C11.2378 0.616699 10.9961 0.686523 10.7275 0.810059L1.95654 4.84375C1.44092 5.08008 0.952148 5.37549 0.952148 5.89111C0.952148 6.49268 1.51611 6.71289 2.24121 6.71289ZM3.0791 5.62256C3.03076 5.62256 3.01465 5.56348 3.07373 5.53662L10.7383 2.03467C10.8188 1.99707 10.8564 2.04541 10.8242 2.12061L7.31689 9.78516C7.29004 9.83887 7.23096 9.82812 7.23096 9.77441L7.25781 6.15967C7.25781 5.76221 7.09668 5.5957 6.68848 5.60107L3.0791 5.62256Z" fill="#353431"/>
</svg>
