<svg width="40" height="22" viewBox="0 0 40 22" fill="none" xmlns="http://www.w3.org/2000/svg">
<path d="M0.176066 6.66049V21.3125H4.92807V6.66049H0.176066ZM0.143066 4.87849H4.99407V0.522491H0.143066V4.87849ZM11.4713 13.8545C11.4713 11.5445 12.4283 10.0265 14.3423 10.0265C16.0913 10.0265 16.7843 11.1815 16.7843 13.2935V21.3125H21.5363V12.1385C21.5363 9.0035 20.2163 6.26449 16.2563 6.26449C14.0453 6.26449 12.2633 7.32049 11.4713 8.93749V6.66049H6.71935V21.3125H11.4713V13.8545ZM31.7692 15.1085C31.7692 17.2535 30.3832 18.5405 28.6342 18.5405C27.5782 18.5405 26.9512 17.9465 26.9512 17.0885C26.9512 15.9665 27.8422 15.5375 29.3602 15.2405L31.7692 14.7785V15.1085ZM36.4552 11.9735C36.4552 7.98049 33.7492 6.26449 29.8882 6.26449C25.6972 6.26449 23.3542 8.44249 22.8592 11.5775L27.2482 11.9075C27.5452 10.6865 28.2382 9.82849 29.6242 9.82849C31.0762 9.82849 31.7692 10.6535 31.7692 12.0395V12.3695L27.6772 13.0625C24.4102 13.6565 22.3312 14.8445 22.3312 17.6825C22.3312 20.1575 24.1792 21.6425 27.0172 21.6425C29.3932 21.6425 31.1422 20.6525 31.9672 18.9695C32.3962 20.6525 33.7492 21.6425 35.4982 21.6425C36.9172 21.6425 37.8742 21.2135 38.6002 20.6855V18.1445C38.1712 18.3425 37.8082 18.4085 37.3792 18.4085C36.7852 18.4085 36.4552 18.0785 36.4552 17.3195V11.9735ZM31.6702 5.10949L34.8712 0.522491H30.0202L28.2382 5.10949H31.6702Z" fill="#DB8E21"/>
</svg>
