<svg width="15" height="30" viewBox="0 0 15 30" fill="none" xmlns="http://www.w3.org/2000/svg">
<path d="M8.08988 2.02883C9.2162 2.16187 10.6407 2.56097 10.6407 2.56097C10.7401 2.59423 10.7732 2.66075 10.7732 2.76053C10.7732 2.79379 10.7401 2.82705 10.7069 2.86031C10.7069 2.86031 10.2431 2.92683 9.64686 2.96009L9.77937 4.45676H9.84562C10.1769 4.45676 10.475 4.72283 10.475 5.05543L10.5082 5.45455H11.0051C12.3633 5.45455 13.5559 6.58537 13.6552 7.949L14.5828 22.7162C14.6491 24.0466 13.6552 25.1441 12.3302 25.1441H2.22637C0.901287 25.1441 -0.0925322 24.0466 0.0068493 22.7162L1.13317 7.91574C1.23255 6.5521 2.42513 5.42128 3.81647 5.42128H4.08149L4.11462 5.02218C4.11462 4.68958 4.41276 4.4235 4.74403 4.4235H4.81029L4.9428 2.92683C4.34651 2.86031 3.88273 2.82705 3.88273 2.82705C3.84961 2.82705 3.81647 2.79379 3.81647 2.72727C3.81647 2.62749 3.88273 2.56098 3.94898 2.52772C3.94898 2.52772 5.37345 2.16187 6.56603 2.02883C6.43352 1.96231 6.30101 1.79601 6.30101 1.66297V0.897999C6.30101 0.631923 6.46665 0.332596 6.69854 0.199559C6.69854 0.199559 6.93043 0 7.29483 0C7.59297 0 7.89111 0.199559 7.89111 0.199559C8.123 0.332596 8.28864 0.631923 8.28864 0.897999V1.66297C8.28864 1.79601 8.18926 1.92905 8.08988 2.02883ZM5.14156 8.51442H3.8496C3.65084 8.51442 3.4852 8.34812 3.4852 8.1153C3.4852 7.91574 3.65084 7.71618 3.8496 7.71618H10.7732C10.9719 7.71618 11.1376 7.88248 11.1376 8.1153C11.1376 8.31486 10.9719 8.51442 10.7732 8.51442H9.5806L10.1769 10.4435C10.21 10.51 10.1438 10.5765 10.0775 10.5765H4.71091C4.64466 10.5765 4.5784 10.51 4.61153 10.4435L5.14156 8.51442ZM4.01524 6.21951C2.85579 6.28603 1.82884 7.28381 1.76259 8.44789L0.735651 22.2506C0.63627 23.4479 1.56382 24.4124 2.7564 24.4124H11.8664C13.059 24.4124 13.9865 23.4479 13.9203 22.2506L13.0921 8.44789C13.0258 7.2173 11.9658 6.18626 10.7069 6.18626H10.5744L10.6407 7.71618H3.94898L4.01524 6.21951ZM6.036 3.19291C5.80411 3.19291 5.60534 3.39246 5.60534 3.62528V3.6918C5.60534 3.92462 5.80411 4.12417 6.036 4.12417H6.56603C6.79792 4.12417 6.99669 3.92462 6.99669 3.6918V3.62528C6.99669 3.39246 6.79792 3.19291 6.56603 3.19291H6.036ZM8.02363 3.19291C7.79174 3.19291 7.59297 3.39246 7.59297 3.62528V3.6918C7.59297 3.92462 7.79174 4.12417 8.02363 4.12417H8.55366C8.78555 4.12417 8.98432 3.92462 8.98432 3.6918V3.62528C8.98432 3.39246 8.78555 3.19291 8.55366 3.19291H8.02363ZM7.29483 0.432369C7.09607 0.432369 6.93043 0.565404 6.93043 0.565404C6.79792 0.631923 6.66541 0.831488 6.66541 1.03104V1.52994C6.66541 1.62971 6.73167 1.76275 6.86418 1.79601C6.86418 1.79601 7.06294 1.86253 7.29483 1.86253C7.49359 1.86253 7.72548 1.79601 7.72548 1.79601C7.82486 1.76275 7.92424 1.66297 7.92424 1.52994V1.03104C7.92424 0.864747 7.79174 0.665183 7.65923 0.565404C7.6261 0.565404 7.49359 0.432369 7.29483 0.432369Z" fill="#FEFDFB"/>
<path d="M9.54748 23.5144C10.9057 23.8138 11.8001 24.4124 11.8664 25.0776C12.1976 25.0111 12.4627 25.2439 12.4627 25.6098V27.7051C12.8933 27.6386 13.2577 27.9047 13.2577 28.3703V28.4036C13.2577 28.8359 12.9264 29.3348 12.4958 29.4679C12.4958 29.4679 11.4689 30 7.36108 30C3.25332 30 2.16011 29.4679 2.16011 29.4679C1.72946 29.3348 1.39819 28.8692 1.39819 28.4368V28.4036C1.39819 27.9712 1.72946 27.6719 2.16011 27.7384V25.643C2.16011 25.3104 2.42513 25.0776 2.7564 25.1109C2.7564 25.1109 2.78953 25.1109 2.85579 25.1109C2.88891 24.3792 3.94898 23.7805 5.47283 23.4812C5.17469 23.2151 4.97592 22.8825 4.97592 22.5166C4.97592 21.6186 10.1438 21.6186 10.1438 22.5166C10.1106 22.8825 9.87875 23.2484 9.54748 23.5144Z" fill="#FEFDFB"/>
<path d="M10.5413 22.0842C10.5413 22.0842 9.44808 19.7228 8.35488 18.7915C7.12917 17.7605 4.71089 17.2616 3.51831 16.2305L3.58456 15.9645C4.64463 16.9623 7.26168 17.5277 8.52052 18.592C9.61371 19.5232 10.7069 21.8847 10.7069 21.8847L10.5413 22.0842Z" fill="#FEFDFB"/>
<path d="M4.31334 22.0842C4.31334 22.0842 5.40654 19.7228 6.49974 18.7915C7.72544 17.7605 10.1768 17.2616 11.4026 16.2305L11.3363 15.9645C10.2431 16.9623 7.62606 17.5277 6.3341 18.592C5.20778 19.5232 4.14771 21.8847 4.14771 21.8847L4.31334 22.0842Z" fill="#FEFDFB"/>
<path d="M4.71086 10.5765C4.71086 13.3371 3.18701 15.632 3.18701 18.6918C3.18701 21.7517 4.57835 22.2839 4.57835 22.2839C4.6446 22.3171 4.77712 22.3504 4.8765 22.3504H9.94495C10.0443 22.3504 10.1768 22.3171 10.2431 22.2839C10.2431 22.2839 11.7669 21.7517 11.7669 18.6918C11.7669 15.632 10.1106 13.3038 10.1106 10.5765H4.71086Z" stroke="#FEFDFB" stroke-width="0.7"/>
<path d="M0.901367 21.5521H2.55773C2.889 21.5521 3.15401 21.8181 3.15401 22.184V22.2505C3.15401 22.5831 3.41902 22.8824 3.7503 22.8824H4.87663" stroke="#FEFDFB" stroke-width="0.5" stroke-linecap="round"/>
<path d="M14.0197 21.6187H12.3633C12.0321 21.6187 11.767 21.8847 11.767 22.2506C11.767 22.5832 11.502 22.8825 11.1708 22.8825H10.0444" stroke="#FEFDFB" stroke-width="0.5" stroke-linecap="round"/>
</svg>
