<svg width="25" height="41" viewBox="0 0 25 41" fill="none" xmlns="http://www.w3.org/2000/svg">
<path opacity="0.2" d="M15.0094 20.25L9.0094 17.25V3.75L15.0094 6.75V20.25Z" fill="#353431" fill-opacity="0.7"/>
<path d="M21.4688 4.6594C21.3803 4.58881 21.2768 4.53943 21.1663 4.51506C21.0558 4.49068 20.9412 4.49195 20.8312 4.51877L15.0937 5.95315L9.34687 3.07502H9.3375L9.2625 3.0469H9.24375L9.17812 3.02815H9.15L9.08437 3.0094H8.83125L2.83125 4.5094C2.6661 4.54976 2.51955 4.64503 2.41565 4.77959C2.31174 4.91416 2.25664 5.08003 2.25937 5.25002V18.75C2.25828 18.8643 2.284 18.9773 2.33447 19.0799C2.38494 19.1825 2.45876 19.2718 2.55 19.3407C2.68083 19.444 2.84268 19.5001 3.00937 19.5L3.19687 19.4813L8.925 18.0469L14.6719 20.925H14.6812L14.7469 20.9531H14.7562L14.8312 20.9813H15.1969L21.1969 19.4813C21.3587 19.4395 21.502 19.3448 21.6039 19.2124C21.7058 19.0799 21.7605 18.9172 21.7594 18.75V5.25002C21.7605 5.13571 21.7347 5.02273 21.6843 4.92016C21.6338 4.81759 21.56 4.72828 21.4688 4.6594ZM3.75937 5.83127L8.25937 4.70627V16.6688L3.75937 17.7938V5.83127ZM14.2594 19.0406L9.75937 16.7906V4.9594L14.2594 7.2094V19.0406ZM20.2594 18.1688L15.7594 19.2938V7.33127L20.2594 6.20627V18.1688Z" fill="#353431" fill-opacity="0.7"/>
<path d="M2.65531 38V34.856C2.65531 33.764 2.64331 32.936 2.55931 32.408L4.77931 38H6.19531L8.42731 32.396C8.34331 33.02 8.34331 33.536 8.34331 35.3V38H9.83131V29.228H8.31931L5.48731 36.212L2.65531 29.228H1.16731V38H2.65531ZM13.3208 38.156C14.2448 38.156 15.0488 37.736 15.3008 37.124L15.4088 38H16.6928V34.4C16.6928 32.756 15.7088 31.892 14.1128 31.892C12.5048 31.892 11.4488 32.732 11.4488 34.016H12.6968C12.6968 33.392 13.1768 33.032 14.0408 33.032C14.7848 33.032 15.2648 33.356 15.2648 34.16V34.292L13.4888 34.424C12.0848 34.532 11.2928 35.216 11.2928 36.308C11.2928 37.424 12.0608 38.156 13.3208 38.156ZM13.8008 37.052C13.1408 37.052 12.7808 36.788 12.7808 36.248C12.7808 35.768 13.1288 35.468 14.0408 35.384L15.2768 35.288V35.6C15.2768 36.512 14.7008 37.052 13.8008 37.052ZM18.131 40.748H19.595V37.208C19.967 37.808 20.735 38.156 21.623 38.156C23.387 38.156 24.395 36.812 24.395 34.964C24.395 33.104 23.291 31.892 21.623 31.892C20.723 31.892 19.943 32.288 19.583 32.972L19.487 32.072H18.131V40.748ZM19.607 35.036C19.607 33.968 20.267 33.224 21.275 33.224C22.307 33.224 22.919 33.98 22.919 35.036C22.919 36.092 22.307 36.836 21.275 36.836C20.267 36.836 19.607 36.104 19.607 35.036Z" fill="#353431" fill-opacity="0.7"/>
</svg>
