<svg width="20" height="16" viewBox="0 0 20 16" fill="none" xmlns="http://www.w3.org/2000/svg">
<rect opacity="0.2" x="15.5" y="3" width="3.5" height="11.5" rx="1" fill="#353431"/>
<path d="M10.5 6.5C10.5 5.94772 10.9477 5.5 11.5 5.5H13C13.5523 5.5 14 5.94772 14 6.5V13.5C14 14.0523 13.5523 14.5 13 14.5H11.5C10.9477 14.5 10.5 14.0523 10.5 13.5V6.5Z" fill="#353431"/>
<path d="M5.5 9C5.5 8.44772 5.94772 8 6.5 8H8C8.55228 8 9 8.44772 9 9V13.5C9 14.0523 8.55228 14.5 8 14.5H6.5C5.94772 14.5 5.5 14.0523 5.5 13.5V9Z" fill="#353431"/>
<path d="M0.5 11C0.5 10.4477 0.947715 10 1.5 10H3C3.55228 10 4 10.4477 4 11V13.5C4 14.0523 3.55228 14.5 3 14.5H1.5C0.947715 14.5 0.5 14.0523 0.5 13.5V11Z" fill="#353431"/>
</svg>
