<svg width="51" height="41" viewBox="0 0 51 41" fill="none" xmlns="http://www.w3.org/2000/svg">
<path d="M34 12C34 12.1989 33.921 12.3897 33.7804 12.5303C33.6397 12.671 33.4489 12.75 33.25 12.75H22.75C22.5511 12.75 22.3604 12.671 22.2197 12.5303C22.0791 12.3897 22 12.1989 22 12C22 11.8011 22.0791 11.6103 22.2197 11.4696C22.3604 11.329 22.5511 11.25 22.75 11.25H33.25C33.4489 11.25 33.6397 11.329 33.7804 11.4696C33.921 11.6103 34 11.8011 34 12ZM22.75 6.74997H33.25C33.4489 6.74997 33.6397 6.67095 33.7804 6.5303C33.921 6.38965 34 6.19888 34 5.99997C34 5.80106 33.921 5.61029 33.7804 5.46964C33.6397 5.32899 33.4489 5.24997 33.25 5.24997H22.75C22.5511 5.24997 22.3604 5.32899 22.2197 5.46964C22.0791 5.61029 22 5.80106 22 5.99997C22 6.19888 22.0791 6.38965 22.2197 6.5303C22.3604 6.67095 22.5511 6.74997 22.75 6.74997ZM33.25 17.25H22.75C22.5511 17.25 22.3604 17.329 22.2197 17.4696C22.0791 17.6103 22 17.8011 22 18C22 18.1989 22.0791 18.3896 22.2197 18.5303C22.3604 18.671 22.5511 18.75 22.75 18.75H33.25C33.4489 18.75 33.6397 18.671 33.7804 18.5303C33.921 18.3896 34 18.1989 34 18C34 17.8011 33.921 17.6103 33.7804 17.4696C33.6397 17.329 33.4489 17.25 33.25 17.25ZM17.0875 6.29997L17.5 6.08435V10.125C17.5 10.3239 17.5791 10.5146 17.7197 10.6553C17.8604 10.796 18.0511 10.875 18.25 10.875C18.4489 10.875 18.6397 10.796 18.7804 10.6553C18.921 10.5146 19 10.3239 19 10.125V4.87497C19.0008 4.74699 18.9684 4.62099 18.9059 4.50926C18.8435 4.39753 18.7532 4.30389 18.6438 4.23747C18.5353 4.16925 18.4111 4.12999 18.283 4.12342C18.155 4.11686 18.0275 4.14321 17.9125 4.19997L16.4125 4.94997C16.3239 4.99429 16.2448 5.05564 16.1799 5.13051C16.115 5.20538 16.0654 5.2923 16.0341 5.38632C15.9708 5.5762 15.9855 5.78345 16.075 5.96247C16.1645 6.14149 16.3215 6.27762 16.5114 6.34092C16.7013 6.40421 16.9085 6.38948 17.0875 6.29997ZM19.7688 15.9656C20.0025 15.6266 20.1269 15.2242 20.125 14.8125C20.1277 14.3349 19.9644 13.8711 19.6632 13.5005C19.362 13.1298 18.9415 12.8752 18.4735 12.78C18.0054 12.6848 17.5189 12.7551 17.0969 12.9787C16.6748 13.2023 16.3435 13.5655 16.1594 14.0062C16.0811 14.1902 16.0791 14.3978 16.1538 14.5833C16.2285 14.7688 16.3739 14.917 16.5578 14.9953C16.7418 15.0736 16.9494 15.0756 17.1349 15.0009C17.3204 14.9262 17.4686 14.7808 17.5469 14.5968C17.5871 14.4933 17.6581 14.4045 17.7503 14.3425C17.8425 14.2805 17.9514 14.2482 18.0625 14.25C18.2117 14.25 18.3548 14.3092 18.4603 14.4147C18.5658 14.5202 18.625 14.6633 18.625 14.8125C18.6273 14.9186 18.598 15.0231 18.5407 15.1125L16.15 18.3C16.0665 18.4114 16.0156 18.5439 16.0031 18.6826C15.9906 18.8213 16.0169 18.9608 16.0792 19.0854C16.1415 19.21 16.2373 19.3147 16.3557 19.388C16.4742 19.4612 16.6108 19.5 16.75 19.5H19.375C19.5739 19.5 19.7647 19.421 19.9054 19.2803C20.046 19.1396 20.125 18.9489 20.125 18.75C20.125 18.5511 20.046 18.3603 19.9054 18.2196C19.7647 18.079 19.5739 18 19.375 18H18.25L19.75 15.9937L19.7688 15.9656Z" fill="#353431" fill-opacity="0.7"/>
<path d="M2.57245 38V34.724H4.45645L5.94445 38H7.62445L5.95645 34.4C6.98845 33.98 7.54045 33.14 7.54045 31.964C7.54045 30.236 6.37645 29.228 4.38445 29.228H1.03645V38H2.57245ZM2.57245 30.596H4.38445C5.35645 30.596 5.93245 31.088 5.93245 31.964C5.93245 32.852 5.35645 33.368 4.38445 33.368H2.57245V30.596ZM10.3891 38.156C11.3131 38.156 12.1171 37.736 12.3691 37.124L12.4771 38H13.7611V34.4C13.7611 32.756 12.7771 31.892 11.1811 31.892C9.57314 31.892 8.51714 32.732 8.51714 34.016H9.76514C9.76514 33.392 10.2451 33.032 11.1091 33.032C11.8531 33.032 12.3331 33.356 12.3331 34.16V34.292L10.5571 34.424C9.15314 34.532 8.36114 35.216 8.36114 36.308C8.36114 37.424 9.12914 38.156 10.3891 38.156ZM10.8691 37.052C10.2091 37.052 9.84914 36.788 9.84914 36.248C9.84914 35.768 10.1971 35.468 11.1091 35.384L12.3451 35.288V35.6C12.3451 36.512 11.7691 37.052 10.8691 37.052ZM16.6634 38V34.808C16.6634 33.848 17.2154 33.224 18.1154 33.224C18.8714 33.224 19.3634 33.704 19.3634 34.7V38H20.8274V34.352C20.8274 32.816 20.0594 31.892 18.5714 31.892C17.7674 31.892 17.0474 32.24 16.6754 32.84L16.5554 32.072H15.1994V38H16.6634ZM23.7418 38V36.404L24.6058 35.504L26.1538 38H27.8338L25.6258 34.424L27.8818 32.072H26.0458L23.7418 34.556V29.072H22.2898V38H23.7418ZM29.4548 30.884C29.9348 30.884 30.3308 30.488 30.3308 29.996C30.3308 29.504 29.9348 29.12 29.4548 29.12C28.9508 29.12 28.5548 29.504 28.5548 29.996C28.5548 30.488 28.9508 30.884 29.4548 30.884ZM28.7228 38H30.1868V32.072H28.7228V38ZM33.1634 38V34.808C33.1634 33.848 33.7154 33.224 34.6154 33.224C35.3714 33.224 35.8634 33.704 35.8634 34.7V38H37.3274V34.352C37.3274 32.816 36.5594 31.892 35.0714 31.892C34.2674 31.892 33.5474 32.24 33.1754 32.84L33.0554 32.072H31.6994V38H33.1634ZM38.4298 34.904C38.4298 36.62 39.5338 37.88 41.2138 37.88C42.0658 37.88 42.7978 37.532 43.1698 36.98V37.964C43.1698 38.948 42.5218 39.584 41.5138 39.584C40.6138 39.584 40.0258 39.128 39.9298 38.36H38.4658C38.6458 39.944 39.8098 40.916 41.5138 40.916C43.4338 40.916 44.6218 39.68 44.6218 37.7V32.072H43.2658L43.1818 32.888C42.8338 32.252 42.1378 31.88 41.2498 31.88C39.5578 31.88 38.4298 33.176 38.4298 34.904ZM39.9058 34.868C39.9058 33.896 40.5298 33.164 41.5018 33.164C42.5218 33.164 43.1338 33.86 43.1338 34.868C43.1338 35.9 42.5098 36.608 41.5018 36.608C40.5418 36.608 39.9058 35.864 39.9058 34.868ZM45.6809 36.2C45.6809 37.364 46.6169 38.156 48.0929 38.156C49.5569 38.156 50.5769 37.412 50.5769 36.212C50.5769 35.3 50.0729 34.844 49.0769 34.616L48.0089 34.364C47.5049 34.244 47.2409 34.028 47.2409 33.692C47.2409 33.248 47.5769 32.984 48.1529 32.984C48.7169 32.984 49.0529 33.308 49.0649 33.812H50.4569C50.4449 32.66 49.5449 31.892 48.2129 31.892C46.8449 31.892 45.8609 32.588 45.8609 33.752C45.8609 34.7 46.3769 35.204 47.4449 35.444L48.5129 35.696C49.0409 35.816 49.1969 36.032 49.1969 36.332C49.1969 36.764 48.8249 37.04 48.1409 37.04C47.4689 37.04 47.0849 36.716 47.0729 36.2H45.6809Z" fill="#353431" fill-opacity="0.7"/>
</svg>
