<svg width="39" height="41" viewBox="0 0 39 41" fill="none" xmlns="http://www.w3.org/2000/svg">
<path opacity="0.2" d="M17.875 18.75C22.2242 18.75 25.75 15.2242 25.75 10.875C25.75 6.52576 22.2242 3 17.875 3C13.5258 3 10 6.52576 10 10.875C10 15.2242 13.5258 18.75 17.875 18.75Z" fill="#353431" fill-opacity="0.7"/>
<path d="M28.5344 20.4656L24.475 16.4156C25.9077 14.7099 26.6266 12.517 26.4817 10.2942C26.3369 8.07131 25.3394 5.9902 23.6975 4.48488C22.0555 2.97956 19.8958 2.16624 17.6688 2.21456C15.4417 2.26288 13.3193 3.1691 11.7442 4.74422C10.1691 6.31934 9.26288 8.44175 9.21456 10.6688C9.16624 12.8958 9.97956 15.0555 11.4849 16.6975C12.9902 18.3394 15.0713 19.3369 17.2942 19.4817C19.517 19.6266 21.7099 18.9077 23.4156 17.475L27.4656 21.5344C27.609 21.673 27.8006 21.7505 28 21.7505C28.1994 21.7505 28.391 21.673 28.5344 21.5344C28.6752 21.3922 28.7542 21.2002 28.7542 21C28.7542 20.7999 28.6752 20.6078 28.5344 20.4656ZM10.75 10.875C10.75 9.46583 11.1679 8.08829 11.9508 6.91659C12.7337 5.74489 13.8465 4.83166 15.1484 4.29238C16.4503 3.75311 17.8829 3.61201 19.265 3.88693C20.6472 4.16185 21.9167 4.84044 22.9132 5.83689C23.9096 6.83334 24.5882 8.10289 24.8631 9.485C25.138 10.8671 24.9969 12.2997 24.4577 13.6016C23.9184 14.9036 23.0052 16.0163 21.8335 16.7992C20.6618 17.5822 19.2842 18 17.875 18C15.9861 17.9975 14.1753 17.2461 12.8396 15.9104C11.504 14.5748 10.7525 12.7639 10.75 10.875Z" fill="#353431" fill-opacity="0.7"/>
<path d="M0.731672 31.676C0.731672 33.02 1.51167 33.872 2.99967 34.196L4.39167 34.508C5.11167 34.664 5.41167 35.012 5.41167 35.6C5.41167 36.332 4.76367 36.776 3.74367 36.776C2.75967 36.776 2.15967 36.332 2.14767 35.588H0.611672C0.647672 37.16 1.87167 38.156 3.74367 38.156C5.67567 38.156 6.94767 37.1 6.94767 35.468C6.94767 34.16 6.21567 33.392 4.71567 33.068L3.33567 32.768C2.60367 32.6 2.26767 32.252 2.26767 31.628C2.26767 30.896 2.87967 30.44 3.82767 30.44C4.69167 30.44 5.23167 30.884 5.26767 31.64H6.80367C6.75567 30.056 5.62767 29.072 3.85167 29.072C2.00367 29.072 0.731672 30.14 0.731672 31.676ZM10.7732 38.156C12.3212 38.156 13.4012 37.376 13.6532 36.08H12.2972C12.1292 36.644 11.6012 36.956 10.7972 36.956C9.82523 36.956 9.27323 36.428 9.16523 35.384L13.6292 35.372V34.928C13.6292 33.08 12.5012 31.892 10.7252 31.892C8.98523 31.892 7.77323 33.176 7.77323 35.036C7.77323 36.872 9.00923 38.156 10.7732 38.156ZM10.7372 33.092C11.6132 33.092 12.1772 33.632 12.1772 34.448H9.20123C9.34523 33.56 9.87323 33.092 10.7372 33.092ZM16.5063 38.156C17.4303 38.156 18.2343 37.736 18.4863 37.124L18.5943 38H19.8783V34.4C19.8783 32.756 18.8943 31.892 17.2983 31.892C15.6903 31.892 14.6343 32.732 14.6343 34.016H15.8823C15.8823 33.392 16.3623 33.032 17.2263 33.032C17.9703 33.032 18.4503 33.356 18.4503 34.16V34.292L16.6743 34.424C15.2703 34.532 14.4783 35.216 14.4783 36.308C14.4783 37.424 15.2463 38.156 16.5063 38.156ZM16.9863 37.052C16.3263 37.052 15.9663 36.788 15.9663 36.248C15.9663 35.768 16.3143 35.468 17.2263 35.384L18.4623 35.288V35.6C18.4623 36.512 17.8863 37.052 16.9863 37.052ZM25.0365 32.048C24.7965 31.988 24.5925 31.964 24.3885 31.964C23.5965 31.964 23.0325 32.36 22.7805 32.948L22.6965 32.084H21.3165V38H22.7805V35.12C22.7805 33.968 23.4405 33.404 24.4965 33.404H25.0365V32.048ZM25.4803 35.024C25.4803 36.908 26.6563 38.156 28.4563 38.156C30.0043 38.156 31.1563 37.208 31.3363 35.828H29.8603C29.7043 36.476 29.1883 36.836 28.4563 36.836C27.5203 36.836 26.9443 36.14 26.9443 35.024C26.9443 33.908 27.5683 33.2 28.5043 33.2C29.2003 33.2 29.6923 33.548 29.8603 34.22H31.3243C31.1683 32.792 30.0643 31.892 28.4443 31.892C26.6923 31.892 25.4803 33.188 25.4803 35.024ZM33.8899 38V34.76C33.8899 33.872 34.4299 33.224 35.3539 33.224C36.0979 33.224 36.5899 33.704 36.5899 34.7V38H38.0539V34.352C38.0539 32.816 37.2859 31.892 35.8219 31.892C34.9699 31.892 34.2739 32.264 33.9019 32.84V29.072H32.4259V38H33.8899Z" fill="#353431" fill-opacity="0.7"/>
</svg>
