<svg width="31" height="13" viewBox="0 0 31 13" fill="none" xmlns="http://www.w3.org/2000/svg">
<path d="M4.11719 12.2734C6.98438 12.2734 8.6875 10.0312 8.6875 6.22656C8.6875 2.49219 6.875 0.445312 4.17969 0.445312C1.72656 0.445312 -0.0078125 2.09375 -0.0078125 4.39844C-0.0078125 6.5625 1.55469 8.14062 3.70312 8.14062C5.02344 8.14062 6.09375 7.53125 6.625 6.46094H6.75781C6.73438 9.10938 5.78906 10.625 4.14062 10.625C3.17188 10.625 2.39844 10.0938 2.15625 9.23438H0.148438C0.476562 11.0703 2.05469 12.2734 4.11719 12.2734ZM4.1875 6.58594C2.875 6.58594 1.96875 5.66406 1.96875 4.33594C1.96875 3.0625 2.92188 2.08594 4.19531 2.08594C5.46875 2.08594 6.42188 3.07812 6.42188 4.375C6.42188 5.65625 5.49219 6.58594 4.1875 6.58594ZM11.9066 4.70312C12.6488 4.70312 13.1566 4.1875 13.1566 3.49219C13.1566 2.79688 12.6488 2.28125 11.9066 2.28125C11.1722 2.28125 10.6566 2.79688 10.6566 3.49219C10.6566 4.1875 11.1722 4.70312 11.9066 4.70312ZM11.9066 10.4375C12.6488 10.4375 13.1566 9.91406 13.1566 9.22656C13.1566 8.53125 12.6488 8.01562 11.9066 8.01562C11.1722 8.01562 10.6566 8.53125 10.6566 9.22656C10.6566 9.91406 11.1722 10.4375 11.9066 10.4375ZM20.6256 12H22.5553V9.83594H24.0787V8.17188H22.5553V0.726562H19.7116C18.1803 3.05469 16.5787 5.64844 15.1178 8.1875V9.83594H20.6256V12ZM16.985 8.10156C18.0866 6.1875 19.3912 4.10156 20.5475 2.33594H20.6569V8.21875H16.985V8.10156ZM28.3759 12H30.3916V0.726562H28.3838L25.4384 2.79688V4.69531L28.2431 2.71094H28.3759V12Z" fill="#353431"/>
</svg>
