<svg width="24" height="24" viewBox="0 0 24 24" fill="none" xmlns="http://www.w3.org/2000/svg">
<path opacity="0.2" d="M11.9999 3C10.1788 2.99947 8.40042 3.55141 6.89961 4.5829C5.3988 5.6144 4.24621 7.07692 3.59411 8.77726C2.942 10.4776 2.82106 12.3358 3.24726 14.1063C3.67346 15.8768 4.62675 17.4764 5.9812 18.6937C6.54557 17.5824 7.40665 16.649 8.469 15.997C9.53135 15.345 10.7535 14.9999 11.9999 15C11.2583 15 10.5332 14.7801 9.91656 14.368C9.29987 13.956 8.81923 13.3703 8.5354 12.6851C8.25157 11.9998 8.17731 11.2458 8.322 10.5184C8.4667 9.79098 8.82385 9.1228 9.3483 8.59835C9.87274 8.0739 10.5409 7.71675 11.2684 7.57206C11.9958 7.42736 12.7498 7.50162 13.435 7.78545C14.1202 8.06928 14.7059 8.54993 15.118 9.16661C15.53 9.7833 15.7499 10.5083 15.7499 11.25C15.7499 12.2446 15.3549 13.1984 14.6516 13.9017C13.9483 14.6049 12.9945 15 11.9999 15C13.2464 14.9999 14.4685 15.345 15.5309 15.997C16.5932 16.649 17.4543 17.5824 18.0187 18.6937C19.3731 17.4764 20.3264 15.8768 20.7526 14.1063C21.1788 12.3358 21.0579 10.4776 20.4058 8.77726C19.7537 7.07692 18.6011 5.6144 17.1003 4.5829C15.5995 3.55141 13.821 2.99947 11.9999 3Z" fill="#353431" fill-opacity="0.7"/>
<path d="M21.75 12C21.7505 10.3781 21.3464 8.78176 20.5744 7.35547C19.8023 5.92917 18.6866 4.718 17.3284 3.83166C15.9701 2.94532 14.4122 2.4118 12.7958 2.27942C11.1794 2.14704 9.55542 2.41999 8.07107 3.07355C6.58672 3.72711 5.28886 4.74062 4.29502 6.0223C3.30118 7.30398 2.64276 8.81334 2.3794 10.4137C2.11604 12.014 2.25606 13.6547 2.78677 15.1873C3.31748 16.7199 4.22212 18.0959 5.41875 19.1906L5.54063 19.3031C7.32305 20.8796 9.62046 21.7498 12 21.7498C14.3795 21.7498 16.6769 20.8796 18.4594 19.3031L18.5813 19.1906C19.5807 18.2786 20.3788 17.1679 20.9245 15.9297C21.4701 14.6915 21.7513 13.3531 21.75 12ZM3.75 12C3.74951 10.6638 4.07357 9.3475 4.69431 8.16426C5.31506 6.98102 6.21392 5.96626 7.31359 5.20724C8.41326 4.44822 9.68083 3.96766 11.0073 3.80688C12.3338 3.6461 13.6795 3.80992 14.9286 4.28424C16.1778 4.75857 17.293 5.5292 18.1785 6.52988C19.0639 7.53056 19.6931 8.73133 20.0118 10.0289C20.3306 11.3265 20.3294 12.6822 20.0083 13.9792C19.6873 15.2762 19.056 16.4759 18.1688 17.475C17.3325 16.2622 16.1544 15.3257 14.7844 14.7844C15.5192 14.2056 16.0554 13.4122 16.3184 12.5146C16.5815 11.6169 16.5582 10.6596 16.252 9.77581C15.9457 8.89199 15.3716 8.12557 14.6096 7.58313C13.8475 7.0407 12.9354 6.74922 12 6.74922C11.0646 6.74922 10.1525 7.0407 9.39043 7.58313C8.62839 8.12557 8.05432 8.89199 7.74805 9.77581C7.44178 10.6596 7.41855 11.6169 7.68157 12.5146C7.94459 13.4122 8.4808 14.2056 9.21563 14.7844C7.84557 15.3257 6.66749 16.2622 5.83125 17.475C4.48816 15.9678 3.74725 14.0188 3.75 12ZM9 11.25C9 10.6566 9.17595 10.0766 9.50559 9.58328C9.83524 9.08993 10.3038 8.70541 10.852 8.47835C11.4001 8.25129 12.0033 8.19188 12.5853 8.30763C13.1672 8.42339 13.7018 8.70911 14.1213 9.12867C14.5409 9.54822 14.8266 10.0828 14.9424 10.6647C15.0581 11.2467 14.9987 11.8499 14.7716 12.398C14.5446 12.9462 14.1601 13.4148 13.6667 13.7444C13.1734 14.074 12.5933 14.25 12 14.25C11.2051 14.2475 10.4435 13.9306 9.88141 13.3686C9.31934 12.8065 9.00247 12.0449 9 11.25ZM6.94688 18.5156C7.48961 17.6679 8.23691 16.9703 9.11995 16.4871C10.003 16.004 10.9934 15.7507 12 15.7507C13.0066 15.7507 13.997 16.004 14.88 16.4871C15.7631 16.9703 16.5104 17.6679 17.0531 18.5156C15.6083 19.6392 13.8303 20.2492 12 20.2492C10.1697 20.2492 8.39167 19.6392 6.94688 18.5156Z" fill="#353431" fill-opacity="0.7"/>
</svg>
