<svg width="16" height="16" viewBox="0 0 16 16" fill="none" xmlns="http://www.w3.org/2000/svg">
<path d="M10.3253 12.2888C10.39 12.2252 10.4256 12.1378 10.4238 12.047C10.4219 11.9563 10.3828 11.8704 10.3155 11.8095C8.97919 10.6781 7.02199 10.6781 5.68565 11.8095C5.61837 11.8703 5.57914 11.9562 5.57722 12.047C5.57531 12.1377 5.61087 12.2252 5.67552 12.2888L7.76836 14.4026C7.8297 14.4648 7.91333 14.4997 8.00059 14.4997C8.08785 14.4997 8.17148 14.4648 8.23282 14.4026L10.3253 12.2888Z" fill="#353431"/>
<path d="M8.00031 9.36946C9.2758 9.36939 10.5058 9.84396 11.4512 10.701C11.5791 10.8226 11.7806 10.82 11.9052 10.695L13.1149 9.47154C13.1786 9.40736 13.214 9.3203 13.213 9.22984C13.2121 9.13937 13.175 9.05304 13.11 8.99018C10.2309 6.30926 5.77218 6.30926 2.89305 8.99018C2.82801 9.05304 2.79091 9.13941 2.79005 9.22991C2.7892 9.3204 2.82467 9.40746 2.88851 9.47154L4.09784 10.695C4.2225 10.82 4.42394 10.8226 4.55182 10.701C5.49666 9.84453 6.72566 9.36999 8.00031 9.36946Z" fill="#353431"/>
<path opacity="0.2" d="M8.00044 5.38827C10.3219 5.38837 12.5546 6.28128 14.2371 7.88246C14.3638 8.00608 14.5663 8.00452 14.691 7.87896L15.9021 6.65546C15.9653 6.59178 16.0005 6.50552 16 6.41577C15.9995 6.32603 15.9632 6.24019 15.8993 6.17725C11.4834 1.94092 4.51678 1.94092 0.100859 6.17725C0.0368916 6.24014 0.000597157 6.32595 7.30289e-06 6.4157C-0.000582551 6.50545 0.0345808 6.59174 0.0977163 6.65546L1.30914 7.87896C1.43384 8.00471 1.6365 8.00627 1.76312 7.88246C3.44579 6.28118 5.67875 5.38826 8.00044 5.38827Z" fill="#353431"/>
</svg>
